solid ascii
 facet normal 1 -0 0
  outer loop
   vertex 10 1 3
   vertex 10 0 3
   vertex 10 1 0
  endloop
 endfacet
 facet normal 1 0 0
  outer loop
   vertex 10 1 0
   vertex 10 0 3
   vertex 10 0 0
  endloop
 endfacet
 facet normal 0 1 0
  outer loop
   vertex 5 1 3
   vertex 10 1 3
   vertex 5 1 0
  endloop
 endfacet
 facet normal 0 1 0
  outer loop
   vertex 5 1 0
   vertex 10 1 3
   vertex 10 1 0
  endloop
 endfacet
 facet normal -1 -0 0
  outer loop
   vertex 5 0 3
   vertex 5 1 3
   vertex 5 0 0
  endloop
 endfacet
 facet normal -1 0 -0
  outer loop
   vertex 5 0 0
   vertex 5 1 3
   vertex 5 1 0
  endloop
 endfacet
 facet normal 0 -1 0
  outer loop
   vertex 10 0 3
   vertex 5 0 3
   vertex 10 0 0
  endloop
 endfacet
 facet normal 0 -1 0
  outer loop
   vertex 10 0 0
   vertex 5 0 3
   vertex 5 0 0
  endloop
 endfacet
 facet normal 0 0 1
  outer loop
   vertex 5 1 3
   vertex 5 0 3
   vertex 10 1 3
  endloop
 endfacet
 facet normal 0 0 1
  outer loop
   vertex 10 1 3
   vertex 5 0 3
   vertex 10 0 3
  endloop
 endfacet
 facet normal 0 0 -1
  outer loop
   vertex 5 0 0
   vertex 5 1 0
   vertex 10 0 0
  endloop
 endfacet
 facet normal 0 0 -1
  outer loop
   vertex 10 0 0
   vertex 5 1 0
   vertex 10 1 0
  endloop
 endfacet
endsolid
