solid ascii
 facet normal 1 -0 0
  outer loop
   vertex 15 5 3
   vertex 15 0 3
   vertex 15 5 0
  endloop
 endfacet
 facet normal 1 0 0
  outer loop
   vertex 15 5 0
   vertex 15 0 3
   vertex 15 0 0
  endloop
 endfacet
 facet normal 0 1 0
  outer loop
   vertex 10 5 3
   vertex 15 5 3
   vertex 10 5 0
  endloop
 endfacet
 facet normal 0 1 0
  outer loop
   vertex 10 5 0
   vertex 15 5 3
   vertex 15 5 0
  endloop
 endfacet
 facet normal -1 -0 0
  outer loop
   vertex 10 0 3
   vertex 10 5 3
   vertex 10 0 0
  endloop
 endfacet
 facet normal -1 0 -0
  outer loop
   vertex 10 0 0
   vertex 10 5 3
   vertex 10 5 0
  endloop
 endfacet
 facet normal 0 -1 0
  outer loop
   vertex 15 0 3
   vertex 10 0 3
   vertex 15 0 0
  endloop
 endfacet
 facet normal 0 -1 0
  outer loop
   vertex 15 0 0
   vertex 10 0 3
   vertex 10 0 0
  endloop
 endfacet
 facet normal 0 0 1
  outer loop
   vertex 10 5 3
   vertex 10 0 3
   vertex 15 5 3
  endloop
 endfacet
 facet normal 0 0 1
  outer loop
   vertex 15 5 3
   vertex 10 0 3
   vertex 15 0 3
  endloop
 endfacet
 facet normal 0 0 -1
  outer loop
   vertex 10 0 0
   vertex 10 5 0
   vertex 15 0 0
  endloop
 endfacet
 facet normal 0 0 -1
  outer loop
   vertex 15 0 0
   vertex 10 5 0
   vertex 15 5 0
  endloop
 endfacet
endsolid
