solid ascii
 facet normal -1 0 0
  outer loop
   vertex -4.75 5 9
   vertex -4.75 5 3
   vertex -4.75 0 9
  endloop
 endfacet
 facet normal -1 0 0
  outer loop
   vertex -4.75 0 9
   vertex -4.75 5 3
   vertex -4.75 0 3
  endloop
 endfacet
 facet normal -0 0 1
  outer loop
   vertex -4.25 5 9
   vertex -4.75 5 9
   vertex -4.25 0 9
  endloop
 endfacet
 facet normal 0 0 1
  outer loop
   vertex -4.25 0 9
   vertex -4.75 5 9
   vertex -4.75 0 9
  endloop
 endfacet
 facet normal 1 0 0
  outer loop
   vertex -4.25 5 3
   vertex -4.25 5 9
   vertex -4.25 0 3
  endloop
 endfacet
 facet normal 1 0 0
  outer loop
   vertex -4.25 0 3
   vertex -4.25 5 9
   vertex -4.25 0 9
  endloop
 endfacet
 facet normal -0 0 -1
  outer loop
   vertex -4.75 5 3
   vertex -4.25 5 3
   vertex -4.75 0 3
  endloop
 endfacet
 facet normal 0 -0 -1
  outer loop
   vertex -4.75 0 3
   vertex -4.25 5 3
   vertex -4.25 0 3
  endloop
 endfacet
 facet normal 0 1 -0
  outer loop
   vertex -4.25 5 9
   vertex -4.25 5 3
   vertex -4.75 5 9
  endloop
 endfacet
 facet normal 0 1 0
  outer loop
   vertex -4.75 5 9
   vertex -4.25 5 3
   vertex -4.75 5 3
  endloop
 endfacet
 facet normal 0 -1 -0
  outer loop
   vertex -4.25 0 3
   vertex -4.25 0 9
   vertex -4.75 0 3
  endloop
 endfacet
 facet normal -0 -1 0
  outer loop
   vertex -4.75 0 3
   vertex -4.25 0 9
   vertex -4.75 0 9
  endloop
 endfacet
endsolid
